<?xml version="1.0" encoding="utf-8"?>
<!-- Generator: Adobe Illustrator 18.1.1, SVG Export Plug-In . SVG Version: 6.00 Build 0)  -->
<svg version="1.1" id="图层_1" xmlns="http://www.w3.org/2000/svg" xmlns:xlink="http://www.w3.org/1999/xlink" x="0px" y="0px"
	 viewBox="0 0 553.3 769.1" enable-background="new 0 0 553.3 769.1" xml:space="preserve">
<g>
	<defs>
		<rect id="SVGID_1_" width="553.3" height="769.1"/>
	</defs>
	<clipPath id="SVGID_2_">
		<use xlink:href="#SVGID_1_"  overflow="visible"/>
	</clipPath>
	<path clip-path="url(#SVGID_2_)" fill="#FFFFFF" d="M277.6,443.8"/>
	<path clip-path="url(#SVGID_2_)" fill="#848D2F" d="M295.7,91.1L295.7,91.1c0-6.4-5.1-11.5-11.5-11.5h0
		c-63.2,0-114.6,51.4-114.6,114.6c0,6.3,5.2,11.5,11.5,11.5c2.1,0,4.1-0.6,5.8-1.6c3.4-2,5.7-5.7,5.7-9.9v0
		c0.1-50.6,41-91.5,91.6-91.6h0C290.6,102.5,295.7,97.4,295.7,91.1L295.7,91.1L295.7,91.1z M177,230.1c-2.1,2.1-3.4,5-3.4,8.2
		s1.3,6.1,3.4,8.2c2.2,2.2,5.1,3.3,8.2,3.3h0.1c3.1,0,5.9-1.3,7.9-3.3c2.1-2.1,3.4-5,3.5-8.2c0-3.2-1.4-6.1-3.5-8.2
		c-2.1-2-4.9-3.2-8.1-3.2C182,226.9,179.1,228.1,177,230.1L177,230.1z"/>
	<path clip-path="url(#SVGID_2_)" fill="#504C23" d="M386.9,419.4c49-67.1,79.5-167,79.5-230.7C466.4,84.7,381.7,0,277.6,0
		C173.5,0,88.9,84.7,88.9,188.7c0,63.8,30.5,163.8,79.6,230.9C80.8,457.6,17.9,540.1,3.3,635C1.2,647.7,0,662.4,0,677.4
		c0,35.8,37.7,57.7,86.1,71.1c66.4,18.4,153,20.6,190.6,20.6c34.7,0,111.3-1.9,175.2-16.7c55.6-12.9,101.5-35.5,101.5-75.2
		c0-20.2-2.2-40-6.4-59.2C528,530.6,468.2,455.5,386.9,419.4L386.9,419.4z M134.8,188.7C134.8,110,198.9,46,277.6,46
		c78.7,0,142.8,64.1,142.8,142.8c0,89.2-73.4,255-142.8,255C208.2,443.8,134.8,277.9,134.8,188.7 M45.9,677.2
		c0-97.5,61.3-185.9,150.6-219.6c24.3,22.6,52,34.4,81,34.4c28.4,0,56-12,80.6-35c88.5,34.1,149.2,122.8,149.2,220.2
		c0,12.7-70.9,46-230.7,46C116.9,723.2,45.9,689.9,45.9,677.2L45.9,677.2z"/>
</g>
</svg>
