<?xml version="1.0" encoding="utf-8"?>
<!-- Generator: Adobe Illustrator 18.1.1, SVG Export Plug-In . SVG Version: 6.00 Build 0)  -->
<svg version="1.1" id="图层_1" xmlns="http://www.w3.org/2000/svg" xmlns:xlink="http://www.w3.org/1999/xlink" x="0px" y="0px"
	 viewBox="0 0 728.9 820.7" enable-background="new 0 0 728.9 820.7" xml:space="preserve">
<g>
	<defs>
		<rect id="SVGID_1_" width="728.9" height="820.7"/>
	</defs>
	<clipPath id="SVGID_2_">
		<use xlink:href="#SVGID_1_"  overflow="visible"/>
	</clipPath>
	<path clip-path="url(#SVGID_2_)" d="M443.9,158.4H283.7c-7.4,0-13-7.7-8.6-15.2C278.5,137.1,349,15.9,355,5.6
		c4-6.8,13.4-6.7,17.4,0c4.4,7.4,75.2,129.1,80.1,137.9C456.1,149.9,452.1,158.4,443.9,158.4"/>
	<path clip-path="url(#SVGID_2_)" d="M452.5,676.8c-4.9,8.8-75.7,130.4-80.1,137.9c-4,6.7-13.4,6.8-17.4,0
		c-6-10.3-76.4-131.5-79.9-137.6c-4.4-7.6,1.2-15.2,8.6-15.2h160.2C452.1,661.9,456.1,670.3,452.5,676.8"/>
</g>
<g>
	<defs>
		<rect id="SVGID_3_" width="728.9" height="820.7"/>
	</defs>
	<clipPath id="SVGID_4_">
		<use xlink:href="#SVGID_3_"  overflow="visible"/>
	</clipPath>
	<path clip-path="url(#SVGID_4_)" d="M533.9,199.9h-90L380.3,317c-6.1,11.3-11.2,21.2-15.5,29.7c-15.2-30.1-39.7-75.9-73.9-138.5
		l-4.6-8.3h-92.9L296.5,377h-72.7v71.2h99.1v21.8h-99.1v71.7h99.1v78.5h81.3v-78.5h95.6v-71.7h-95.6v-21.8h95.6V377h-70L533.9,199.9
		z"/>
	<path clip-path="url(#SVGID_4_)" d="M227.6,672.6C132.9,623.3,68.3,524.3,68.3,410.1c0-114.1,64.6-213.1,159.3-262.5V72.5
		C94.1,126.5,0,257.3,0,410.1c0,152.8,94.1,283.6,227.6,337.6V672.6z"/>
	<path clip-path="url(#SVGID_4_)" d="M500.6,72.5v75.1C595.3,197,659.9,296,659.9,410.1c0,114.1-64.6,213.1-159.3,262.5v75.1
		c133.4-54,227.6-184.8,227.6-337.6S634,126.5,500.6,72.5"/>
</g>
</svg>
