<?xml version="1.0" encoding="utf-8"?>
<!-- Generator: Adobe Illustrator 18.1.1, SVG Export Plug-In . SVG Version: 6.00 Build 0)  -->
<svg version="1.1" id="图层_1" xmlns="http://www.w3.org/2000/svg" xmlns:xlink="http://www.w3.org/1999/xlink" x="0px" y="0px"
	 viewBox="0 0 928.9 817.9" enable-background="new 0 0 928.9 817.9" xml:space="preserve">
<g>
	<defs>
		<rect id="SVGID_1_" x="0.1" y="0" width="928.8" height="817.9"/>
	</defs>
	<clipPath id="SVGID_2_">
		<use xlink:href="#SVGID_1_"  overflow="visible"/>
	</clipPath>
	<path clip-path="url(#SVGID_2_)" fill="#ffffff" d="M614.4,754.6H146.9c-13.4,0-24.5,13.4-24.5,31.2c0,17.8,11.1,31.2,24.5,31.2
		h467.5c13.4,0,24.5-13.4,24.5-31.2C638.9,768,627.8,754.6,614.4,754.6 M124.7,271.6v178.1c0,17.8,13.4,31.2,31.2,31.2
		c17.8,0,31.2-13.4,31.2-31.2V271.6c0-17.8-13.4-31.2-31.2-31.2C138,240.4,124.7,253.8,124.7,271.6 M267.1,180.3v269.4
		c0,17.8,13.4,31.2,31.2,31.2c17.8,0,31.2-13.4,31.2-31.2V180.3c0-17.8-13.4-31.2-31.2-31.2C280.5,149.1,267.1,162.5,267.1,180.3
		 M414.1,126.9v322.8c0,17.8,13.4,31.2,31.2,31.2c17.8,0,31.2-13.4,31.2-31.2V126.9c0-17.8-13.4-31.2-31.2-31.2
		C427.4,95.7,414.1,109.1,414.1,126.9"/>
	<path clip-path="url(#SVGID_2_)" fill="#ffffff" d="M496.4,554.3H91.3c-17.8,0-31.2-15.6-31.2-33.4V95.7
		c0-17.8,13.4-33.4,31.2-33.4h692.3c17.8,0,31.2,15.6,31.2,33.4v213.7c22.3,6.7,42.3,17.8,60.1,31.2V95.7
		c0-53.4-40.1-95.7-91.3-95.7H91.3C40.1,0,0,42.3,0,95.7v425.2c0,53.4,40.1,95.7,91.3,95.7h414C498.6,596.6,496.4,576.6,496.4,554.3
		"/>
</g>
<g>
	<defs>
		<rect id="SVGID_3_" width="928.9" height="817.9"/>
	</defs>
	<clipPath id="SVGID_4_">
		<use xlink:href="#SVGID_3_"  overflow="visible"/>
	</clipPath>
	<path clip-path="url(#SVGID_4_)" fill="#ffffff" d="M734.6,347.3c-106.9,0-193.7,86.8-193.7,193.7c0,106.9,86.8,193.7,193.7,193.7
		c106.9,0,193.7-86.8,193.7-193.7C928.3,434.1,841.5,347.3,734.6,347.3 M841.5,509.8c-4.5,0-6.7-2.2-11.1-2.2l-40.1,75.7
		c8.9,6.7,13.4,17.8,13.4,28.9c0,22.3-17.8,40.1-40.1,40.1c-22.3,0-40.1-17.8-40.1-40.1c0-6.7,2.2-11.1,4.5-17.8l-51.2-35.6
		c-4.5,4.5-11.1,6.7-20,6.7c-2.2,0-4.5,0-6.7-2.2L623.3,601c2.2,4.5,2.2,6.7,2.2,11.1c0,15.6-11.1,26.7-26.7,26.7
		c-15.6,0-26.7-11.1-26.7-26.7c0-15.6,11.1-26.7,26.7-26.7c4.5,0,6.7,0,11.1,2.2l24.5-33.4c-4.5-4.5-8.9-13.4-8.9-20
		c0-17.8,13.4-31.2,31.2-31.2c17.8,0,31.2,13.4,31.2,31.2c0,4.5,0,6.7-2.2,8.9l51.2,37.8c6.7-6.7,15.6-8.9,24.5-8.9
		c4.5,0,6.7,2.2,11.1,2.2l40.1-73.5c-13.4-8.9-20-22.3-20-37.8c0-26.7,22.3-46.8,46.7-46.8c26.7,0,46.8,22.3,46.8,46.8
		C888.2,487.5,868.2,509.8,841.5,509.8"/>
</g>
</svg>
