<?xml version="1.0" encoding="utf-8"?>
<!-- Generator: Adobe Illustrator 18.1.1, SVG Export Plug-In . SVG Version: 6.00 Build 0)  -->
<svg version="1.1" id="图层_1" xmlns="http://www.w3.org/2000/svg" xmlns:xlink="http://www.w3.org/1999/xlink" x="0px" y="0px"
	 viewBox="0 0 663 663.8" enable-background="new 0 0 663 663.8" xml:space="preserve">
<g>
	<defs>
		<rect id="SVGID_1_" x="0.1" width="662.9" height="663.8"/>
	</defs>
	<clipPath id="SVGID_2_">
		<use xlink:href="#SVGID_1_"  overflow="visible"/>
	</clipPath>
	<path clip-path="url(#SVGID_2_)" fill="#ffffff" d="M0.1,308.9C0.1,215.3,0,180.1,0,86.5C0,5.3,45.1,0,88.4,0h353.5
		c68.1,0,89.2,23.2,89.2,88.4v44.2c0,34.8-44.3,30.9-44.3,0V88.4c0-32.7-10.6-44.2-44.8-44.2H88.4c-36.6,0-44.2,5-44.2,44.2v441.9
		c0,24.2,13.3,44.2,44.2,44.2c53.6,0,34.8,0,88.4,0c27,0,29,44.2,0,44.2c-29,0-51,0.4-105,0.1c-31.9-0.1-58.3-19-67.7-48.3
		c-2.6-8.2-3.8-17.2-3.8-25.9C0,451.4,0.1,402.3,0.1,308.9"/>
</g>
<g>
	<defs>
		<rect id="SVGID_3_" width="663" height="663.8"/>
	</defs>
	<clipPath id="SVGID_4_">
		<use xlink:href="#SVGID_3_"  overflow="visible"/>
	</clipPath>
	<path clip-path="url(#SVGID_4_)" fill="#ffffff" d="M441.5,662.9C319.6,662.9,221,564.1,221,442c0-122.1,99.1-221,221.2-220.8
		c122.1,0.2,220.7,99.2,220.6,221.5C662.6,564.4,563.7,662.9,441.5,662.9 M442.1,265.4c-96.9-0.2-176.5,79.1-176.7,176
		c-0.2,97.2,78.7,176.8,175.6,177c97.4,0.3,177.2-78.6,177.4-175.2C618.7,345.1,539.9,265.6,442.1,265.4 M397.7,132.3
		c35.2,0,30.4,44.8,0,44.8H132.6c-33.1,0-31.8-44.8,0-44.8C219.6,132.3,363.9,132.3,397.7,132.3 M176.8,264.9
		c35.2,0,30.4,44.8,0,44.8h-44.2c-33.1,0-31.8-44.8,0-44.8C219.6,264.9,142.9,264.9,176.8,264.9"/>
	<path clip-path="url(#SVGID_4_)" fill="#ffffff" d="M550.2,359.6c-10-10-26.2-10-36.2,0L403.5,470.1l-33.8-33.8
		c-10-10-26.2-10-36.2,0c-10,10-10,26.2,0,36.2l51.9,51.9c5,5,11.6,7.5,18.1,7.5c6.6,0,13.1-2.5,18.1-7.5c0.7-0.7,1.3-1.4,1.9-2.2
		c0.8-0.6,1.5-1.2,2.2-1.9l124.5-124.5C560.2,385.8,560.2,369.6,550.2,359.6"/>
</g>
</svg>
