<?xml version="1.0" encoding="utf-8"?>
<!-- Generator: Adobe Illustrator 18.1.1, SVG Export Plug-In . SVG Version: 6.00 Build 0)  -->
<svg version="1.1" id="图层_1" xmlns="http://www.w3.org/2000/svg" xmlns:xlink="http://www.w3.org/1999/xlink" x="0px" y="0px"
	 viewBox="0 0 819.2 696.3" enable-background="new 0 0 819.2 696.3" xml:space="preserve">
<g>
	<defs>
		<rect id="SVGID_1_" width="819.2" height="696.3"/>
	</defs>
	<clipPath id="SVGID_2_">
		<use xlink:href="#SVGID_1_"  overflow="visible"/>
	</clipPath>
	<path clip-path="url(#SVGID_2_)" d="M716.8,486.4L573.4,348.2l143.4-138.2c56.3,0,102.4-46.1,102.4-102.4
		c0-56.3-46.1-102.4-102.4-102.4c-56.3,0-102.4,46.1-102.4,102.4c0,35.8,20.5,66.6,46.1,87L537.6,317.4L419.8,199.7
		c-10.2-10.2-25.6-10.2-35.8,0L271.4,312.3L148.5,194.6c35.8-15.4,56.3-51.2,56.3-92.2C204.8,46.1,158.7,0,102.4,0
		C46.1,0,0,46.1,0,102.4c0,51.2,41,92.2,87,102.4l143.4,143.4L87,491.5c-51.2,5.1-87,51.2-87,102.4c0,56.3,46.1,102.4,102.4,102.4
		c56.3,0,102.4-46.1,102.4-102.4c0-41-20.5-76.8-56.3-92.2L266.2,384l87,81.9c-25.6,15.4-46.1,46.1-46.1,76.8
		c0,51.2,41,92.2,92.2,92.2c51.2,0,92.2-41,92.2-92.2c0-30.7-15.4-61.4-46.1-76.8l87-81.9l122.9,122.9c-25.6,20.5-46.1,51.2-46.1,87
		c0,56.3,46.1,102.4,102.4,102.4s102.4-46.1,102.4-102.4C819.2,532.5,773.1,486.4,716.8,486.4 M716.8,51.2
		c30.7,0,51.2,25.6,51.2,51.2c0,25.6-25.6,51.2-51.2,51.2c-25.6,0-51.2-25.6-51.2-51.2C665.6,76.8,686.1,51.2,716.8,51.2
		 M51.2,102.4c0-30.7,25.6-51.2,51.2-51.2c30.7,0,51.2,25.6,51.2,51.2c0,25.6-25.6,51.2-51.2,51.2C76.8,158.7,51.2,133.1,51.2,102.4
		 M102.4,645.1c-30.7,0-51.2-25.6-51.2-51.2c0-30.7,25.6-51.2,51.2-51.2c30.7,0,51.2,25.6,51.2,51.2
		C153.6,619.5,133.1,645.1,102.4,645.1 M404.5,588.8c-20.5,0-41-20.5-41-41c0-20.5,20.5-41,41-41c20.5,0,41,20.5,41,41
		C445.4,568.3,425,588.8,404.5,588.8 M404.5,445.4l-97.3-97.3l97.3-97.3l92.2,97.3L404.5,445.4z M716.8,645.1
		c-30.7,0-51.2-25.6-51.2-51.2c0-30.7,25.6-51.2,51.2-51.2c25.6,0,51.2,25.6,51.2,51.2C768,619.5,742.4,645.1,716.8,645.1"/>
</g>
</svg>
