<?xml version="1.0" encoding="utf-8"?>
<!-- Generator: Adobe Illustrator 18.1.1, SVG Export Plug-In . SVG Version: 6.00 Build 0)  -->
<svg version="1.1" id="图层_1" xmlns="http://www.w3.org/2000/svg" xmlns:xlink="http://www.w3.org/1999/xlink" x="0px" y="0px"
	 viewBox="0 0 705.8 707.8" enable-background="new 0 0 705.8 707.8" xml:space="preserve">
<g>
	<defs>
		<rect id="SVGID_1_" width="705.8" height="707.8"/>
	</defs>
	<clipPath id="SVGID_2_">
		<use xlink:href="#SVGID_1_"  overflow="visible"/>
	</clipPath>
	<path clip-path="url(#SVGID_2_)" d="M656.3,353.4c-2.9,167.6-135.9,300.5-303.4,303.4C185.3,659.7,52.3,516.6,49.5,353.4
		C46.6,185.8,189.7,52.8,352.9,50C520.5,47.1,653.5,190.2,656.3,353.4c0.5,31.7,49.7,31.7,49.2,0c-3.1-182.5-138.1-329-318.4-350.8
		C206.2-19.4,39.5,115.5,6,290.3c-34.1,178.4,80.5,351.4,251.4,402.6C432.5,745.4,614.2,644,681.9,480
		c16.5-39.9,22.8-83.8,23.6-126.7C706,321.6,656.8,321.7,656.3,353.4"/>
</g>
<g>
	<defs>
		<rect id="SVGID_3_" width="705.8" height="707.8"/>
	</defs>
	<clipPath id="SVGID_4_">
		<use xlink:href="#SVGID_3_"  overflow="visible"/>
	</clipPath>
	<path clip-path="url(#SVGID_4_)" d="M349.7,485.3l114.5-114.5c9.5-9.5,9.5-25.3,0-34.8L349.7,221.5c-22.5-22.5-57.2,12.3-34.8,34.8
		l114.5,114.5V336L314.9,450.5C292.5,472.9,327.3,507.7,349.7,485.3"/>
</g>
</svg>
