<?xml version="1.0" encoding="utf-8"?>
<!-- Generator: Adobe Illustrator 18.1.1, SVG Export Plug-In . SVG Version: 6.00 Build 0)  -->
<svg version="1.1" id="图层_1" xmlns="http://www.w3.org/2000/svg" xmlns:xlink="http://www.w3.org/1999/xlink" x="0px" y="0px"
	 viewBox="0 0 615 696" enable-background="new 0 0 615 696" xml:space="preserve">
<g>
	<defs>
		<rect id="SVGID_1_" x="0.1" width="614.9" height="696"/>
	</defs>
	<clipPath id="SVGID_2_">
		<use xlink:href="#SVGID_1_"  overflow="visible"/>
	</clipPath>
	<path clip-path="url(#SVGID_2_)" fill="#595757" d="M556,696H58.4C26.2,696,0,669.8,0,637.5v-579C0,26.2,26.2,0,58.4,0H556
		c32.2,0,58.4,26.2,58.4,58.5v579.1C614.4,669.8,588.2,696,556,696 M58.4,44.8c-7.5,0-13.6,6.2-13.6,13.7v579.1
		c0,7.5,6.1,13.7,13.6,13.7H556c7.5,0,13.6-6.2,13.6-13.7V58.5c0-7.5-6.1-13.7-13.6-13.7H58.4z"/>
</g>
<path fill="#595757" d="M23.1,193.1h568.2v44.8H23.1V193.1z M139.1,347.8h127.4v44.8H139.1V347.8z"/>
<path fill="#595757" d="M180.4,307h44.8v128h-44.8V307z M400.2,480l90.1,90.1l-31.7,31.7l-90.1-90.1L400.2,480z"/>
<path fill="#595757" d="M459.4,479.2l31.7,31.7l-90.5,90.5l-31.7-31.7L459.4,479.2z M440.2,291.2l31.7,31.7l-297,296.9l-31.7-31.7
	L440.2,291.2z"/>
</svg>
