<?xml version="1.0" encoding="utf-8"?>
<!-- Generator: Adobe Illustrator 18.1.1, SVG Export Plug-In . SVG Version: 6.00 Build 0)  -->
<svg version="1.1" id="图层_1" xmlns="http://www.w3.org/2000/svg" xmlns:xlink="http://www.w3.org/1999/xlink" x="0px" y="0px"
	 viewBox="0 0 625.7 507.7" enable-background="new 0 0 625.7 507.7" xml:space="preserve">
<g>
	<defs>
		<rect id="SVGID_1_" width="625.7" height="507.7"/>
	</defs>
	<clipPath id="SVGID_2_">
		<use xlink:href="#SVGID_1_"  overflow="visible"/>
	</clipPath>
	<path clip-path="url(#SVGID_2_)" d="M320.1,258.8c38.5-25.1,63.9-68.6,63.9-118C384.1,63.2,320.9,0,243.2,0
		c-77.6,0-140.8,63.2-140.8,140.8c0,49.3,25.5,92.8,63.9,118c-35.5,11.8-68,31.7-95.1,58.9C25.3,363.6,0,424.7,0,489.6
		c0,10,8,18,18,18c10,0,18-8,18-18c0-114.2,92.9-207.1,207.1-207.1s207.1,92.9,207.1,207.1c0,10,8,18,18,18c10,0,18-8,18-18
		c0-64.9-25.3-126-71.2-171.9C388.1,290.6,355.6,270.6,320.1,258.8 M138.4,140.9c0-57.8,47-104.8,104.8-104.8
		c57.8,0,104.8,47,104.8,104.8c0,57.8-47,104.8-104.8,104.8C185.5,245.7,138.4,198.7,138.4,140.9"/>
	<path clip-path="url(#SVGID_2_)" d="M583.5,329.6c-27.8-40.9-67.2-72.1-113-89.9c20.3-30.2,31.1-65.8,30.8-102.6
		c-0.3-44.7-17-87.5-46.9-120.6c-6.7-7.4-18.1-7.9-25.5-1.2c-7.4,6.7-7.9,18.1-1.2,25.5c50,55.2,50.3,138.9,0.7,194.6
		c-1.1,1.3-2.1,2.8-2.8,4.3c-0.9,1.4-1.6,2.9-2,4.7c-2.6,9.6,3.1,19.5,12.7,22.1c99,26.5,162.9,119.7,152.2,221.4
		c-1.1,9.9,6.1,18.8,16,19.8c0.7,0.1,1.3,0.1,1.9,0.1c9.1,0,16.9-6.9,17.9-16.1C630.3,434.7,615.8,377.1,583.5,329.6"/>
</g>
</svg>
