<?xml version="1.0" encoding="utf-8"?>
<!-- Generator: Adobe Illustrator 18.1.1, SVG Export Plug-In . SVG Version: 6.00 Build 0)  -->
<svg version="1.1" id="图层_1" xmlns="http://www.w3.org/2000/svg" xmlns:xlink="http://www.w3.org/1999/xlink" x="0px" y="0px"
	 viewBox="0 0 716.8 512" enable-background="new 0 0 716.8 512" xml:space="preserve">
<g>
	<defs>
		<rect id="SVGID_1_" width="716.8" height="512"/>
	</defs>
	<clipPath id="SVGID_2_">
		<use xlink:href="#SVGID_1_"  overflow="visible"/>
	</clipPath>
	<path clip-path="url(#SVGID_2_)" d="M358.4,51.2C512,51.2,604.7,157.7,658.9,256C604.7,354.3,512,460.8,358.4,460.8
		c-153.6,0-246.3-106.5-300.5-204.8C112.1,157.7,204.8,51.2,358.4,51.2 M358.4,0C160.3,0,51.2,153.6,0,256
		c51.2,102.4,160.3,256,358.4,256c198.1,0,307.2-153.6,358.4-256C665.6,153.6,556.5,0,358.4,0"/>
	<path clip-path="url(#SVGID_2_)" d="M435.2,256c-25.1,0.4-48.7-11.6-63.2-32.1c-14.4-20.5-17.8-46.8-9-70.3h-4.6
		C301.8,153.6,256,199.4,256,256s45.8,102.4,102.4,102.4c56.6,0,102.4-45.8,102.4-102.4v-4.6C452.6,254.4,443.9,255.9,435.2,256"/>
</g>
</svg>
