<?xml version="1.0" encoding="utf-8"?>
<!-- Generator: Adobe Illustrator 18.1.1, SVG Export Plug-In . SVG Version: 6.00 Build 0)  -->
<svg version="1.1" id="图层_1" xmlns="http://www.w3.org/2000/svg" xmlns:xlink="http://www.w3.org/1999/xlink" x="0px" y="0px"
	 viewBox="0 0 744.3 636.2" enable-background="new 0 0 744.3 636.2" xml:space="preserve">
<g>
	<defs>
		<rect id="SVGID_1_" width="744.3" height="636.2"/>
	</defs>
	<clipPath id="SVGID_2_">
		<use xlink:href="#SVGID_1_"  overflow="visible"/>
	</clipPath>
	<path clip-path="url(#SVGID_2_)" d="M696,145.7H507.5c22-20,34.4-48.5,33.7-78.2c0-27.9-13.5-43.8-24.8-52.3
		C503.2,5.3,485.5,0,465.2,0c-33.9,0-70.3,14.3-93,37.9c-22.6-23.6-59-37.9-93-37.9c-20.3,0-38,5.3-51.3,15.2
		c-11.3,8.4-24.8,24.4-24.8,52.3c-0.7,29.7,11.6,58.3,33.7,78.2H48.4C21.8,145.6,0.2,167,0,193.6v48.9c0,26.4,21.7,47.9,48.4,47.9
		h8.1c-0.1,1.2-0.2,2.4-0.2,3.6v294.3c0,26.4,21.7,47.9,48.4,47.9h534.7c26.7,0,48.4-21.5,48.4-47.9V294c0-1.2-0.1-2.4-0.2-3.6h8.1
		c26.6,0.1,48.2-21.3,48.4-47.9v-48.8c-0.1-12.8-5.2-25-14.3-34C721,150.7,708.7,145.6,696,145.7 M415.4,59.3
		c14.9-9.5,32.1-14.8,49.7-15.1c31.3,0,31.3,17.5,31.3,23.3c0,11.6,0,46.8-56.1,66.7c-16.4,5.7-33.1,8.7-45.9,10.1V89.8
		C394.6,75.3,407.7,64.5,415.4,59.3 M279.2,44.2c31.8,0,70.6,21,70.6,45.6v54.5c-15.6-1.7-31-5.1-45.8-10.1
		c-56.2-19.9-56.2-55-56.2-66.6C247.9,61.7,247.9,44.2,279.2,44.2 M44.8,242.5v-48.8c0-2,1.6-3.6,3.7-3.6h301.4v56.2H48.4
		C46.4,246.1,44.8,244.5,44.8,242.5 M101.2,588.3V294c0-2,1.6-3.6,3.7-3.6h245v301.5h-245c-1,0-1.9-0.4-2.6-1
		C101.6,590.2,101.2,589.2,101.2,588.3 M643.3,294v294.3c0,2-1.7,3.6-3.7,3.6H394.6V290.4h244.9C641.6,290.4,643.3,292,643.3,294
		 M699.7,242.5c0,2-1.6,3.7-3.7,3.7H394.6V190H696c2.1,0,3.7,1.6,3.7,3.6V242.5z"/>
</g>
</svg>
