<?xml version="1.0" encoding="utf-8"?>
<!-- Generator: Adobe Illustrator 18.1.1, SVG Export Plug-In . SVG Version: 6.00 Build 0)  -->
<svg version="1.1" id="图层_1" xmlns="http://www.w3.org/2000/svg" xmlns:xlink="http://www.w3.org/1999/xlink" x="0px" y="0px"
	 viewBox="0 0 615.7 614.4" enable-background="new 0 0 615.7 614.4" xml:space="preserve">
<g>
	<defs>
		<rect id="SVGID_1_" width="615.7" height="614.4"/>
	</defs>
	<clipPath id="SVGID_2_">
		<use xlink:href="#SVGID_1_"  overflow="visible"/>
	</clipPath>
	<path clip-path="url(#SVGID_2_)" d="M513.3,51.2c28.2,0,51.2,23,51.2,51.2c0,28.2-23,51.2-51.2,51.2c-28.2,0-51.2-23-51.2-51.2
		C462.1,74.2,485.1,51.2,513.3,51.2 M102.4,51.2c28.2,0,51.2,23,51.2,51.2c0,28.2-23,51.2-51.2,51.2c-28.2,0-51.2-23-51.2-51.2
		C51.2,74.2,74.2,51.2,102.4,51.2 M512.6,307.2c28.2,0,51.2,23,51.2,51.2v204.8H461.4V358.4C461.4,330.2,484.5,307.2,512.6,307.2
		 M103,307.2c28.2,0,51.2,23,51.2,51.2v204.8H51.8V358.4C51.8,330.2,74.9,307.2,103,307.2 M513.3,0C457,0,410.9,46.1,410.9,102.4
		c0,56.3,46.1,102.4,102.4,102.4c56.3,0,102.4-46.1,102.4-102.4C615.7,46.1,569.6,0,513.3,0 M102.4,0C46.1,0,0,46.1,0,102.4
		c0,56.3,46.1,102.4,102.4,102.4c56.3,0,102.4-46.1,102.4-102.4C204.8,46.1,159.4,0,102.4,0 M512.6,256
		c-56.3,0-102.4,46.1-102.4,102.4v41l-103,59.5L205.4,400v-39c0-49.9-34.6-94.1-83.2-103C57.6,245.8,0.6,295.7,0.6,358.4v230.4
		c0,14.1,11.5,25.6,25.6,25.6h153.6c14.1,0,25.6-11.5,25.6-25.6V458.9l88.3,51.2c0.6,0,0.6,0.6,1.3,0.6c3.8,2.6,8.3,3.2,12.8,3.2
		c4.5,0,8.3-1.3,12.8-3.2l89.6-52.5v130.6c0,14.1,11.5,25.6,25.6,25.6h153.6c14.1,0,25.6-11.5,25.6-25.6V358.4
		C615,302.1,569,256,512.6,256"/>
</g>
</svg>
