<?xml version="1.0" encoding="utf-8"?>
<!-- Generator: Adobe Illustrator 18.1.1, SVG Export Plug-In . SVG Version: 6.00 Build 0)  -->
<svg version="1.1" id="图层_1" xmlns="http://www.w3.org/2000/svg" xmlns:xlink="http://www.w3.org/1999/xlink" x="0px" y="0px"
	 viewBox="0 0 561.6 603.2" enable-background="new 0 0 561.6 603.2" xml:space="preserve">
<g>
	<defs>
		<rect id="SVGID_1_" width="561.6" height="603.2"/>
	</defs>
	<clipPath id="SVGID_2_">
		<use xlink:href="#SVGID_1_"  overflow="visible"/>
	</clipPath>
	<path clip-path="url(#SVGID_2_)" d="M478.4,603.2l-20.8-20.8l52-62.4h-156v-31.2h156l-52-52l20.8-31.2l83.2,93.6v10.4L478.4,603.2z
		 M176.8,395.2h145.6v31.2H176.8V395.2z M405.6,332.8H176.8v-31.2h228.8V332.8z M405.6,239.2H176.8V208h228.8V239.2z M93.6,208h41.6
		v31.2H93.6V208z M93.6,395.2h41.6v31.2H93.6V395.2z M93.6,301.6h41.6v31.2H93.6V301.6z M468,145.6H353.6V31.2H31.2V572H416v31.2
		H31.2C14,603.2,0,589.2,0,572V31.2C0,14,14,0,31.2,0h353.6l114.4,124.8v249.6H468V145.6z M384.8,52v62.4h62.4L384.8,52z"/>
</g>
</svg>
