<?xml version="1.0" encoding="utf-8"?>
<!-- Generator: Adobe Illustrator 18.1.1, SVG Export Plug-In . SVG Version: 6.00 Build 0)  -->
<svg version="1.1" id="图层_1" xmlns="http://www.w3.org/2000/svg" xmlns:xlink="http://www.w3.org/1999/xlink" x="0px" y="0px"
	 viewBox="0 0 639.4 639.3" enable-background="new 0 0 639.4 639.3" xml:space="preserve">
<polygon points="237,343 237,384.4 299,384.4 299,405.1 237,405.1 237,446.4 299,446.4 299,508.5 340.4,508.5 340.4,446.4 
	402.5,446.4 402.5,405.1 340.4,405.1 340.4,384.4 402.5,384.4 402.5,343 349,343 412.8,279.2 383.5,249.9 319.7,313.7 255.9,249.9 
	226.6,279.2 290.4,343 "/>
<path d="M144.8,124.1h349.7v473.9h0.1H144.8V124.1z M41.4,41.4H598v113.8h0.1H536v-31h20.7V82.7H82.7v41.4h20.7v31H41.4V41.4z M0,0
	v196.5h103.4v442.8h432.5V196.5h103.4V0H0z"/>
</svg>
