<?xml version="1.0" encoding="utf-8"?>
<!-- Generator: Adobe Illustrator 18.1.1, SVG Export Plug-In . SVG Version: 6.00 Build 0)  -->
<svg version="1.1" id="图层_1" xmlns="http://www.w3.org/2000/svg" xmlns:xlink="http://www.w3.org/1999/xlink" x="0px" y="0px"
	 viewBox="0 0 537.8 725.8" enable-background="new 0 0 537.8 725.8" xml:space="preserve">
<g>
	<defs>
		<rect id="SVGID_1_" y="0.1" width="537.8" height="725.8"/>
	</defs>
	<clipPath id="SVGID_2_">
		<use xlink:href="#SVGID_1_"  overflow="visible"/>
	</clipPath>
	<path clip-path="url(#SVGID_2_)" d="M268.9,724.9c-112,0-213.1-70.3-251.9-175c-39.5-104.7-8.8-224,75.4-297.3
		c5.9-5.1,14.6-4.4,19.8,1.5c5.1,5.9,4.4,14.6-1.5,19.8C35.4,339.7,8.3,446.6,43.4,539.6C78.6,634.1,169.4,697,268.9,697
		c99.6,0,190.4-63,225.5-156c35.1-93.7,8.1-200.6-67.4-265.8c-5.9-5.1-6.6-13.9-1.5-19.8c5.1-5.9,13.9-6.6,19.8-1.5
		c84.2,73.2,114.2,193.3,75.4,297.3C482,654.6,381,724.9,268.9,724.9"/>
</g>
<g>
	<defs>
		<rect id="SVGID_3_" width="537.8" height="725.8"/>
	</defs>
	<clipPath id="SVGID_4_">
		<use xlink:href="#SVGID_3_"  overflow="visible"/>
	</clipPath>
	<path clip-path="url(#SVGID_4_)" d="M271.9,614.3c-8.1,0-13.9-5.9-13.9-13.9l-0.7-16.8c0-8.1,5.9-14.6,13.9-14.6
		c8.1,0,13.9,5.9,13.9,13.9l0.7,16.8C286.5,607.7,279.9,614.3,271.9,614.3 M265.3,339c-8.1,0-13.9-5.9-13.9-13.9l-0.7-18.3
		c0-8.1,5.9-14.6,13.9-14.6c8.1,0,14.6,5.9,14.6,13.9l0.7,18.3C279.9,332.4,274.1,338.3,265.3,339C266,339,266,339,265.3,339"/>
	<path clip-path="url(#SVGID_4_)" d="M265.3,585.7c-41,0-70.3-26.4-78.3-34.4c-5.1-5.9-5.1-14.6,0-20.5c5.9-5.1,14.6-5.1,20.5,0
		c4.4,5.1,30,29.3,64.4,25.6c15.4-1.5,46.9-10.3,54.2-32.9c4.4-13.9-0.7-32.2-11.7-44.7c-13.2-14.6-31.5-16.8-52-19
		c-22.7-2.2-49.1-5.1-66.6-28.6c-14.6-19-19-46.1-10.3-68.1c12.4-32.9,50.5-46.1,80.5-45.4c35.9,1.5,58.6,24.2,66.6,33.7
		c5.1,5.9,4.4,14.6-1.5,19.8c-5.9,5.1-14.6,4.4-19.8-1.5c-4.4-5.1-21.2-22.7-46.1-24.2c-20.5-0.7-45.4,8.1-52.7,27.1
		c-5.1,12.4-2.2,29.3,6.6,40.3c9.5,12.4,24.2,14.6,47.6,17.6c23.4,2.2,50.5,5.1,71,28.6c17.6,19.8,24.9,48.3,17.6,71.8
		c-11,35.1-49.1,50.5-78.3,53.4C271.1,585.7,268.2,585.7,265.3,585.7"/>
	<path clip-path="url(#SVGID_4_)" d="M421.2,215.3H116.7c-8.1,0-13.9-6.6-13.9-13.9c0-8.1,6.6-13.9,13.9-13.9h304.6
		c8.1,0,13.9,6.6,13.9,13.9C435.1,209.4,429.3,215.3,421.2,215.3"/>
	<path clip-path="url(#SVGID_4_)" d="M419,157.4c-1.5,0-2.9,0-4.4-0.7c-7.3-2.2-11.7-10.3-8.8-18.3l33.7-101.8c0,0,0-0.7-0.7-1.5
		c-0.7-0.7-0.7,0-1.5,0c-5.1,2.9-9.5,7.3-14.6,11.7c-12.4,11-27.8,24.9-57.1,24.9c-29.3,0-44.7-13.9-57.1-24.9
		c-11-9.5-19.8-17.6-38.8-17.6c-18.3,0-27.8,8.1-38.8,17.6c-12.4,11-27.8,24.9-57.1,24.9s-44.7-13.9-57.1-24.9
		c-5.1-4.4-9.5-8.8-15.4-11.7c0,0-0.7-0.7-1.5,0c-0.7,0.7-0.7,0.7-0.7,1.5l31.5,102.5c2.2,7.3-2.2,15.4-9.5,17.6
		c-7.3,2.2-15.4-2.2-17.6-9.5L72,44.7c-3.7-11.7,0-24.2,9.5-32.2c9.5-8.1,22.7-8.8,33.7-2.2c8.1,4.4,13.9,9.5,19.8,14.6
		c11,9.5,19.8,17.6,38.8,17.6c18.3,0,27.8-8.1,38.8-17.6C225,13.9,240.4,0,269.7,0c29.3,0,44.7,13.9,57.1,24.9
		c11,9.5,19.8,17.6,38.8,17.6c18.3,0,27.8-8.1,38.8-17.6c5.9-5.1,11.7-10.3,19-14.6c11-6.6,24.2-5.1,33.7,2.2
		c9.5,8.1,13.2,20.5,9.5,32.2L433,146.4C430.8,153.8,424.9,157.4,419,157.4"/>
</g>
</svg>
