<?xml version="1.0" encoding="utf-8"?>
<!-- Generator: Adobe Illustrator 18.1.1, SVG Export Plug-In . SVG Version: 6.00 Build 0)  -->
<svg version="1.1" id="图层_1" xmlns="http://www.w3.org/2000/svg" xmlns:xlink="http://www.w3.org/1999/xlink" x="0px" y="0px"
	 viewBox="0 0 818.6 818.6" enable-background="new 0 0 818.6 818.6" xml:space="preserve">
<g>
	<defs>
		<rect id="SVGID_1_" width="818.6" height="818.6"/>
	</defs>
	<clipPath id="SVGID_2_">
		<use xlink:href="#SVGID_1_"  overflow="visible"/>
	</clipPath>
	<path clip-path="url(#SVGID_2_)" d="M793,217.4H487.6c-14.1,0-25.6-11.5-25.6-25.6c0-14.1,11.4-25.6,25.6-25.6H793
		c14.1,0,25.6,11.5,25.6,25.6C818.6,206,807.2,217.4,793,217.4"/>
	<path clip-path="url(#SVGID_2_)" d="M793,750.1H487.6c-14.1,0-25.6-11.5-25.6-25.6c0-14.1,11.4-25.6,25.6-25.6H793
		c14.1,0,25.6,11.5,25.6,25.6C818.6,738.6,807.2,750.1,793,750.1"/>
	<path clip-path="url(#SVGID_2_)" d="M793,580.2H487.6c-14.1,0-25.6-11.5-25.6-25.6c0-14.1,11.4-25.6,25.6-25.6H793
		c14.1,0,25.6,11.5,25.6,25.6C818.6,568.7,807.2,580.2,793,580.2"/>
	<path clip-path="url(#SVGID_2_)" d="M358.1,217.4H25.6C11.4,217.4,0,206,0,191.9c0-14.1,11.4-25.6,25.6-25.6h332.6
		c14.1,0,25.6,11.5,25.6,25.6C383.7,206,372.3,217.4,358.1,217.4"/>
	<path clip-path="url(#SVGID_2_)" d="M191.9,383.7c-14.1,0-25.6-11.5-25.6-25.6V25.6c0-14.1,11.4-25.6,25.6-25.6
		c14.1,0,25.6,11.5,25.6,25.6v332.6C217.4,372.3,206,383.7,191.9,383.7"/>
	<path clip-path="url(#SVGID_2_)" d="M345.4,818.6c-6.5,0-13.1-2.5-18.1-7.5l-307-307c-10-10-10-26.2,0-36.2c10-10,26.2-10,36.2,0
		l307,307c10,10,10,26.2,0,36.2C358.4,816.1,351.9,818.6,345.4,818.6"/>
	<path clip-path="url(#SVGID_2_)" d="M38.4,818.6c-6.5,0-13.1-2.5-18.1-7.5c-10-10-10-26.2,0-36.2l307-307c10-10,26.2-10,36.2,0
		c10,10,10,26.2,0,36.2l-307,307C51.5,816.1,44.9,818.6,38.4,818.6"/>
</g>
</svg>
