<?xml version="1.0" encoding="utf-8"?>
<!-- Generator: Adobe Illustrator 18.1.1, SVG Export Plug-In . SVG Version: 6.00 Build 0)  -->
<svg version="1.1" id="图层_1" xmlns="http://www.w3.org/2000/svg" xmlns:xlink="http://www.w3.org/1999/xlink" x="0px" y="0px"
	 viewBox="0 0 789.7 789.7" enable-background="new 0 0 789.7 789.7" xml:space="preserve">
<g>
	<defs>
		<rect id="SVGID_1_" width="789.7" height="789.7"/>
	</defs>
	<clipPath id="SVGID_2_">
		<use xlink:href="#SVGID_1_"  overflow="visible"/>
	</clipPath>
	<path clip-path="url(#SVGID_2_)" d="M394.8,0C177.1,0,0,177.1,0,394.9c0,217.7,177.1,394.8,394.8,394.8
		c217.7,0,394.9-177.1,394.9-394.8C789.7,177.1,612.5,0,394.8,0 M394.8,735C207.2,735,54.6,582.3,54.6,394.8
		c0-187.7,152.6-340.2,340.2-340.2C582.5,54.6,735,207.2,735,394.8C735,582.4,582.4,735,394.8,735 M490,189l-62.5,115.1
		c-16.7,31.2-26.9,52-30.6,62.2h-1.1c-11-24.9-42-84-93.1-177.3h-58.7l109.3,187.8h-89.6v41.6h105v57h-105v42.2h105v83.2h52.2v-83.2
		h101.3v-42.2H420.9v-57h101.3v-41.6h-86.9L545.6,189H490z"/>
</g>
</svg>
