<svg id="图层_1" data-name="图层 1" xmlns="http://www.w3.org/2000/svg" viewBox="0 0 161.61 50"><defs><style>.cls-1{fill:#b2b2b2;}.cls-2{fill:#fff;}.cls-3{fill:#f9f9f7;}</style></defs><title>bidou</title><rect class="cls-1" width="50" height="50" rx="12.12" ry="12.12"/><path class="cls-2" d="M48.78,109.06H52a1.61,1.61,0,0,1,1.61,1.6v4.19h3.24a4.43,4.43,0,0,1-3.24,4.53h0V128l3.4-1v.85a5.28,5.28,0,0,1-3.4,4.94h0v12a1.4,1.4,0,0,1-1.39,1.4l-3.67,0a1.42,1.42,0,0,1-1.42-1.41V134.63L43,136.57v-1a6.58,6.58,0,0,1,4.21-6.13h0V119.38H42.72v-.08a4.45,4.45,0,0,1,4.45-4.45h0v-4.19A1.61,1.61,0,0,1,48.78,109.06Zm32.15,22.47v.41a4.29,4.29,0,0,1-4.29,4.29h0v8.35a1.54,1.54,0,0,1-1.55,1.55H71.23a1.54,1.54,0,0,1-1.55-1.55v-8.35H56.45a4.69,4.69,0,0,1,4.69-4.7h8.54V110.42A1.36,1.36,0,0,1,71,109.06h4.24a1.36,1.36,0,0,1,1.36,1.36v21.11Z" transform="translate(-36.83 -102.59)"/><path class="cls-3" d="M62.4,115.8A6.2,6.2,0,1,0,68.6,122,6.19,6.19,0,0,0,62.4,115.8ZM65,124.63a4.84,4.84,0,0,0-5.28,0s1.57-3.27,0-5.27a5,5,0,0,0,5.28,0S63.49,122.62,65,124.63Z" transform="translate(-36.83 -102.59)"/><path class="cls-1" d="M174.54,113.31a7.7,7.7,0,1,0,8,7.69A7.85,7.85,0,0,0,174.54,113.31Zm4.07,11.61a7.69,7.69,0,0,0-8.14,0s2.43-4.85,0-7.83a7.93,7.93,0,0,0,8.14,0S176.23,121.93,178.61,124.92Z" transform="translate(-36.83 -102.59)"/><path class="cls-1" d="M192.9,132.84v-26.2a1.72,1.72,0,0,0-1.75-1.69h-5.47a1.72,1.72,0,0,0-1.75,1.69v26.2h-11a5.94,5.94,0,0,0-6.06,5.82h17.07V149a2,2,0,0,0,2,1.92h5a2,2,0,0,0,2-1.92V138.66a5.43,5.43,0,0,0,5.54-5.32v-.5Z" transform="translate(-36.83 -102.59)"/><path class="cls-1" d="M167.64,127.13l-4.38,1.26V117.76h0a5.46,5.46,0,0,0,4.17-5.62h-4.17v-5.2a2,2,0,0,0-2.07-2H157a2,2,0,0,0-2.07,2v5.2h0a5.63,5.63,0,0,0-5.74,5.52v.1h5.74v12.49h0a8.17,8.17,0,0,0-5.43,7.61v1.23l5.43-2.41v12.51a1.77,1.77,0,0,0,1.82,1.74l4.73,0a1.77,1.77,0,0,0,1.8-1.74V134.32h0a6.57,6.57,0,0,0,4.38-6.12Z" transform="translate(-36.83 -102.59)"/><path class="cls-1" d="M126.42,112.89a47.46,47.46,0,0,0,6.68-.28,7.53,7.53,0,0,0,6.84-7.36,49.72,49.72,0,0,1-14.65,1.81h-20.8a5.94,5.94,0,0,0-6,5.83h16.33v5.82h-13a1.82,1.82,0,0,0-1.85,1.78v23.56a2,2,0,0,0,2,2h4.15a2,2,0,0,0,2.06-2V124.53h6.57V149.3a1.58,1.58,0,0,0,1.61,1.55h5.42a1.58,1.58,0,0,0,1.61-1.55V124.53h7.14v19.64a1.76,1.76,0,0,0,1.79,1.72l4.7,0a1.75,1.75,0,0,0,1.77-1.71V120.49a1.82,1.82,0,0,0-1.85-1.78H123.41v-5.82Z" transform="translate(-36.83 -102.59)"/></svg>