<?xml version="1.0" encoding="utf-8"?>
<!-- Generator: Adobe Illustrator 18.1.1, SVG Export Plug-In . SVG Version: 6.00 Build 0)  -->
<svg version="1.1" id="图层_1" xmlns="http://www.w3.org/2000/svg" xmlns:xlink="http://www.w3.org/1999/xlink" x="0px" y="0px"
	 viewBox="0 0 820 820.7" enable-background="new 0 0 820 820.7" xml:space="preserve">
<g>
	<defs>
		<rect id="SVGID_1_" x="0.1" width="819.8" height="820.7"/>
	</defs>
	<clipPath id="SVGID_2_">
		<use xlink:href="#SVGID_1_"  overflow="visible"/>
	</clipPath>
	<path clip-path="url(#SVGID_2_)" d="M409.6,819.7C184.3,819.7,0,635.4,0,410.1C0,184.8,184.3,0.5,409.6,0.5
		c225.3,0,409.6,184.3,409.6,409.6C819.2,635.4,634.9,819.7,409.6,819.7 M409.6,51.7c-199.7,0-358.4,158.7-358.4,358.4
		c0,199.7,158.7,358.4,358.4,358.4c199.7,0,358.4-158.7,358.4-358.4C768,210.4,609.3,51.7,409.6,51.7"/>
</g>
<g>
	<defs>
		<rect id="SVGID_3_" width="820" height="820.7"/>
	</defs>
	<clipPath id="SVGID_4_">
		<use xlink:href="#SVGID_3_"  overflow="visible"/>
	</clipPath>
	<path clip-path="url(#SVGID_4_)" d="M404.5,497.2c-76.8,0-138.2-66.6-138.2-138.2c0-71.7,61.4-138.2,138.2-138.2
		c76.8,0,138.2,61.4,138.2,138.2C542.7,435.7,481.3,497.2,404.5,497.2 M404.5,271.9c-46.1,0-87,35.8-87,87c0,46.1,41,87,87,87
		c46.1,0,87-41,87-87C491.5,307.7,455.7,271.9,404.5,271.9"/>
	<path clip-path="url(#SVGID_4_)" d="M604.2,599.6c-10.2,0-20.5-5.1-20.5-15.4c-41-71.7-117.8-87-174.1-87
		c-56.3,0-133.1,15.4-169,92.2c-5.1,10.2-20.5,15.4-35.8,10.2c-10.2-5.1-15.4-20.5-10.2-35.8c41-76.8,117.8-117.8,215-117.8
		c97.3,0,174.1,41,215,122.9c5.1,10.2,0,25.6-10.2,35.8C609.3,599.6,604.2,599.6,604.2,599.6"/>
</g>
</svg>
