<?xml version="1.0" encoding="utf-8"?>
<!-- Generator: Adobe Illustrator 18.1.1, SVG Export Plug-In . SVG Version: 6.00 Build 0)  -->
<svg version="1.1" id="图层_1" xmlns="http://www.w3.org/2000/svg" xmlns:xlink="http://www.w3.org/1999/xlink" x="0px" y="0px"
	 viewBox="0 0 409.6 546.1" enable-background="new 0 0 409.6 546.1" xml:space="preserve">
<g>
	<defs>
		<rect id="SVGID_1_" width="409.6" height="546.1"/>
	</defs>
	<clipPath id="SVGID_2_">
		<use xlink:href="#SVGID_1_"  overflow="visible"/>
	</clipPath>
	<path clip-path="url(#SVGID_2_)" d="M102.4,78.5c0-13.7,0-20.5,3.4-23.9c3.4-6.8,6.8-10.2,13.7-13.7c6.8-6.8,10.2-6.8,27.3-6.8
		C160.4,13.7,180.9,0,204.8,0c23.9,0,47.8,13.7,58,34.1c13.7,0,20.5,0,27.3,3.4c6.8,3.4,10.2,6.8,13.7,13.7
		c3.4,6.8,3.4,10.2,3.4,27.3l-6.8-10.2h41c37.5,0,68.3,30.7,68.3,68.3v204.8c0,10.2-6.8,17.1-17.1,17.1c-10.2,0-17.1-6.8-17.1-17.1
		V136.5c0-20.5-13.7-34.1-34.1-34.1h-47.8l13.7-10.2c0,13.7,0,20.5-3.4,23.9c-3.4,6.8-6.8,10.2-13.7,13.7
		c-6.8,6.8-10.2,6.8-27.3,6.8H143.4c-13.7,0-17.1,0-23.9-3.4c-6.8-3.4-10.2-6.8-13.7-13.7c-3.4-6.8-3.4-10.2-3.4-27.3l13.7,10.2
		H68.3c-20.5,0-34.1,13.7-34.1,34.1v341.3c0,20.5,13.7,34.1,34.1,34.1h273.1c20.5,0,34.1-13.7,34.1-34.1v-34.1
		c0-10.2,6.8-17.1,17.1-17.1c10.2,0,17.1,6.8,17.1,17.1v34.1c0,37.5-30.7,68.3-68.3,68.3H68.3C30.7,546.1,0,515.4,0,477.9V136.5
		C0,99,30.7,68.3,68.3,68.3h41L102.4,78.5z M136.5,78.5v6.8c0,10.2,6.8,17.1,17.1,17.1H256c10.2,0,17.1-6.8,17.1-17.1V68.3h-6.8
		c-13.7,0-23.9-6.8-30.7-17.1c-6.8-10.2-17.1-17.1-30.7-17.1c-13.7,0-23.9,6.8-30.7,17.1c-3.4,10.2-17.1,17.1-27.3,17.1h-10.2V78.5z
		"/>
	<path clip-path="url(#SVGID_2_)" d="M290.1,238.9H119.5c-10.2,0-17.1-6.8-17.1-17.1c0-10.2,6.8-17.1,17.1-17.1h170.7
		c10.2,0,17.1,6.8,17.1,17.1C307.2,232.1,300.4,238.9,290.1,238.9 M290.1,341.3H119.5c-10.2,0-17.1-6.8-17.1-17.1
		c0-10.2,6.8-17.1,17.1-17.1h170.7c10.2,0,17.1,6.8,17.1,17.1C307.2,334.5,300.4,341.3,290.1,341.3 M290.1,443.7H119.5
		c-10.2,0-17.1-6.8-17.1-17.1c0-10.2,6.8-17.1,17.1-17.1h170.7c10.2,0,17.1,6.8,17.1,17.1C307.2,436.9,300.4,443.7,290.1,443.7"/>
</g>
</svg>
