<?xml version="1.0" encoding="utf-8"?>
<!-- Generator: Adobe Illustrator 18.1.1, SVG Export Plug-In . SVG Version: 6.00 Build 0)  -->
<svg version="1.1" id="图层_1" xmlns="http://www.w3.org/2000/svg" xmlns:xlink="http://www.w3.org/1999/xlink" x="0px" y="0px"
	 viewBox="0 0 618 607" enable-background="new 0 0 618 607" xml:space="preserve">
<g>
	<defs>
		<rect id="SVGID_1_" x="0.1" width="617.9" height="607"/>
	</defs>
	<clipPath id="SVGID_2_">
		<use xlink:href="#SVGID_1_"  overflow="visible"/>
	</clipPath>
	<path clip-path="url(#SVGID_2_)" d="M610.4,342.1c-9-9-23.9-9-32.9,0L369.8,549.8l-98.1-98.1c-9-9-23.9-9-32.9,0
		c-9,9-9,23.9,0,32.9l114.6,114.6c9,9,23.9,9,32.9,0L610.5,375C619.4,366,619.4,351.2,610.4,342.1"/>
	<path clip-path="url(#SVGID_2_)" d="M205.8,535H69.9c-12.8,0-23.3-10.5-23.3-23.3V70.9c0-12.8,10.5-23.3,23.3-23.3h440.8
		c12.8,0,23.3,10.5,23.3,23.3v201c0,12.9,10.4,23.3,23.3,23.3c12.9,0,23.3-10.4,23.3-23.3v-201c0-38.5-31.4-69.9-69.9-69.9H69.9
		C31.4,1,0,32.3,0,70.9v440.8c0,38.5,31.4,69.9,69.9,69.9h135.9c12.9,0,23.3-10.4,23.3-23.3C229.1,545.3,218.7,535,205.8,535"/>
</g>
<g>
	<defs>
		<rect id="SVGID_3_" width="618" height="607"/>
	</defs>
	<clipPath id="SVGID_4_">
		<use xlink:href="#SVGID_3_"  overflow="visible"/>
	</clipPath>
	<path clip-path="url(#SVGID_4_)" d="M435.9,124.6H157.3c-12.8,0-23.3,10.5-23.3,23.3c0,12.8,10.5,23.3,23.3,23.3h278.6
		c12.8,0,23.3-10.5,23.3-23.3C459.2,135,448.7,124.6,435.9,124.6 M435.9,236.9H157.3c-12.8,0-23.3,10.5-23.3,23.3
		c0,12.8,10.5,23.3,23.3,23.3h278.6c12.8,0,23.3-10.5,23.3-23.3C459.2,247.4,448.7,236.9,435.9,236.9 M435.9,349.3H157.3
		c-12.8,0-23.3,10.5-23.3,23.3c0,12.8,10.5,23.3,23.3,23.3h278.6c12.8,0,23.3-10.5,23.3-23.3C459.2,359.8,448.7,349.3,435.9,349.3"
		/>
</g>
</svg>
