<?xml version="1.0" standalone="no"?><!DOCTYPE svg PUBLIC "-//W3C//DTD SVG 1.1//EN" "http://www.w3.org/Graphics/SVG/1.1/DTD/svg11.dtd"><svg t="1527653094471" class="icon" style="" viewBox="0 0 1024 1024" version="1.1" xmlns="http://www.w3.org/2000/svg" p-id="1899" xmlns:xlink="http://www.w3.org/1999/xlink" width="200" height="200"><defs><style type="text/css"></style></defs><path d="M494.223883 803.767752L878.677402 960.053913V132.586673a19.800306 19.800306 0 0 0-19.713335-19.988742H130.106989A19.800306 19.800306 0 0 0 110.437139 132.572178v827.481735zM51.007232 132.586673A79.157737 79.157737 0 0 1 130.106989 53.226005H858.964067A79.157737 79.157737 0 0 1 938.10731 132.572178V969.026379c0 43.818685-32.990846 65.894721-73.272727 49.529755l-370.567214-150.749033-370.045391 150.749033C83.780651 1035.008071 51.007232 1012.932035 51.007232 969.026379V132.572178z m0 0" p-id="1900"></path><path d="M423.922652 511.894432l-71.649276-69.822893 99.001528-14.379139 44.268033-89.695674 44.253539 89.695674 98.987033 14.379139-71.634781 69.822893 16.915781 98.566676-88.521572-46.543764-88.536066 46.558259z m139.863213-140.703929l22.365938 16.220016-6.928657-13.987771z m-158.837298 16.220016l22.365938-16.220016-15.466271 2.232245-6.928658 14.074742z m169.752108 285.220069c41.064616 21.583203 79.230213-6.087942 71.373869-51.84897l-15.118389-88.159194 64.053844-62.502868c33.208273-32.367557 18.684183-77.200899-27.250787-83.88314l-88.521571-12.871648-39.586116-80.085424c-20.539556-41.600935-67.677619-41.61543-88.217175 0l-39.586116 80.21588-88.521572 12.871648c-45.920475 6.667746-60.502545 51.486593-27.279776 83.897635l64.068339 62.430393-15.118389 88.159194c-7.841849 45.717543 30.280262 73.461163 71.359374 51.84897l79.172232-41.687906z m0 0" p-id="1901"></path></svg>