<?xml version="1.0" encoding="utf-8"?>
<!-- Generator: Adobe Illustrator 18.1.1, SVG Export Plug-In . SVG Version: 6.00 Build 0)  -->
<svg version="1.1" id="图层_1" xmlns="http://www.w3.org/2000/svg" xmlns:xlink="http://www.w3.org/1999/xlink" x="0px" y="0px"
	 viewBox="0 0 716.8 716.8" enable-background="new 0 0 716.8 716.8" xml:space="preserve">
<g>
	<defs>
		<rect id="SVGID_1_" width="716.8" height="716.8"/>
	</defs>
	<clipPath id="SVGID_2_">
		<use xlink:href="#SVGID_1_"  overflow="visible"/>
	</clipPath>
	<path clip-path="url(#SVGID_2_)" d="M665.6,358.4h51.2c0,197.8-160.6,358.4-358.4,358.4C160.6,716.8,0,556.2,0,358.4
		C0,160.6,160.6,0,358.4,0v51.2c-169.6,0-307.2,137.6-307.2,307.2c0,169.6,137.6,307.2,307.2,307.2C528,665.6,665.6,528,665.6,358.4
		 M460.8,435.2V384h-87l85.8-85.8L423,262.4L333.4,352l-90.2-89.6l-36.5,36.5l85.8,85.1h-87.7v51.2h103v25.6h-103V512h103v76.8H359
		V512h101.8v-51.2H359v-25.6H460.8z M658.6,21.8L549.8,130.6l-87.7-87.7l-1.9,215l215-1.9l-89-89.6L695,57.6L658.6,21.8z"/>
</g>
</svg>
