<?xml version="1.0" standalone="no"?><!DOCTYPE svg PUBLIC "-//W3C//DTD SVG 1.1//EN" "http://www.w3.org/Graphics/SVG/1.1/DTD/svg11.dtd"><svg t="1532072930667" class="icon" style="" viewBox="0 0 1024 1024" version="1.1" xmlns="http://www.w3.org/2000/svg" p-id="863" xmlns:xlink="http://www.w3.org/1999/xlink" width="200" height="200"><defs><style type="text/css"></style></defs><path d="M720.428541 337.357448 301.639456 337.357448c-31.588439 0-57.314357 24.657586-57.314357 54.974056l0 267.23232c0 30.322609 25.725918 55.000662 57.314357 55.000662l418.790108 0c31.587416 0 57.31538-24.678052 57.31538-55.000662L777.744945 392.331503C777.743922 362.014011 752.01698 337.357448 720.428541 337.357448zM734.419184 658.720619c0 6.808056-6.40999 12.523221-13.990642 12.523221L301.639456 671.243841c-7.707542 0-13.944594-5.614881-13.944594-12.523221L287.694863 476.290707l446.725344 0L734.420207 658.720619zM734.419184 430.161087 287.694863 430.161087l0-37.830607c0-6.459109 6.237051-11.727089 13.944594-11.727089l418.790108 0c7.580652 0 13.990642 5.368264 13.990642 11.727089L734.420207 430.161087z" p-id="864"></path><path d="M330.865081 632.922047l193.960527 0c13.371542 0 24.160259-9.245572 24.160259-20.729114 0-11.432377-10.788717-20.729114-24.160259-20.729114L330.865081 591.46382c-13.371542 0-24.206308 9.296737-24.206308 20.729114C306.658773 623.676475 317.492516 632.922047 330.865081 632.922047z" p-id="865"></path><path d="M598.719572 632.922047l86.73748 0c11.611455 0 21.027919-9.245572 21.027919-20.729114 0-11.432377-9.416464-20.729114-21.027919-20.729114L598.719572 591.46382c-11.631922 0-21.025872 9.296737-21.025872 20.729114C577.6937 623.676475 587.087651 632.922047 598.719572 632.922047z" p-id="866"></path><path d="M511.034511 79.123059c-239.968373 0-435.220313 195.251939-435.220313 435.196777 0 239.986793 195.251939 435.216219 435.220313 435.216219 239.96428 0 435.192683-195.228403 435.192683-435.216219C946.227194 274.373974 750.998791 79.123059 511.034511 79.123059zM511.034511 893.537669c-209.097272 0-379.222951-170.099073-379.222951-379.217834 0-209.073736 170.125679-379.199415 379.222951-379.199415 209.096249 0 379.196345 170.125679 379.196345 379.199415C890.229832 723.438597 720.129736 893.537669 511.034511 893.537669z" p-id="867"></path></svg>