<?xml version="1.0" encoding="utf-8"?>
<!-- Generator: Adobe Illustrator 18.1.1, SVG Export Plug-In . SVG Version: 6.00 Build 0)  -->
<svg version="1.1" id="图层_1" xmlns="http://www.w3.org/2000/svg" xmlns:xlink="http://www.w3.org/1999/xlink" x="0px" y="0px"
	 viewBox="0 0 611.6 714.7" enable-background="new 0 0 611.6 714.7" xml:space="preserve">
<g>
	<defs>
		<rect id="SVGID_1_" width="611.6" height="714.7"/>
	</defs>
	<clipPath id="SVGID_2_">
		<use xlink:href="#SVGID_1_"  overflow="visible"/>
	</clipPath>
	<path clip-path="url(#SVGID_2_)" d="M305.8,714.7H67.5c-36,0-67.5-30.6-67.5-65.5c0-80,83.1-198,167.7-238.2
		c10.3-4.9,22.7-0.5,27.7,9.8c4.9,10.4,0.5,22.7-9.8,27.7c-76.2,36.3-144,142.4-144,200.7c0,12.1,12.9,24,26,24h238.3
		c11.5,0,20.8,9.3,20.8,20.8C326.5,705.4,317.3,714.7,305.8,714.7"/>
	<path clip-path="url(#SVGID_2_)" d="M544.1,714.7H305.8c-11.5,0-20.8-9.3-20.8-20.8c0-11.5,9.3-20.8,20.8-20.8h238.3
		c13.1,0,26-11.9,26-24c0-58.3-67.8-164.5-144-200.7c-10.3-4.9-14.8-17.3-9.8-27.7c4.9-10.3,17.3-14.8,27.7-9.8
		c84.6,40.3,167.7,158.3,167.7,238.2C611.6,684.1,580,714.7,544.1,714.7"/>
	<path clip-path="url(#SVGID_2_)" d="M308.9,408.2c-112.5,0-204.1-91.6-204.1-204.1C104.8,91.6,196.4,0,308.9,0
		C421.4,0,513,91.6,513,204.1C513,316.6,421.4,408.2,308.9,408.2 M308.9,41.5c-89.6,0-162.6,72.9-162.6,162.6
		c0,89.6,72.9,162.6,162.6,162.6c89.6,0,162.6-72.9,162.6-162.6C471.5,114.4,398.5,41.5,308.9,41.5"/>
</g>
</svg>
