<?xml version="1.0" encoding="utf-8"?>
<!-- Generator: Adobe Illustrator 18.1.1, SVG Export Plug-In . SVG Version: 6.00 Build 0)  -->
<svg version="1.1" id="图层_1" xmlns="http://www.w3.org/2000/svg" xmlns:xlink="http://www.w3.org/1999/xlink" x="0px" y="0px"
	 viewBox="0 0 692 675.8" enable-background="new 0 0 692 675.8" xml:space="preserve">
<g>
	<defs>
		<rect id="SVGID_1_" x="0.1" width="691.9" height="675.8"/>
	</defs>
	<clipPath id="SVGID_2_">
		<use xlink:href="#SVGID_1_"  overflow="visible"/>
	</clipPath>
	<path clip-path="url(#SVGID_2_)" d="M546.1,201.6L430.7,426.8c-0.1,0.2-0.2,0.5-0.3,0.7c-0.1,0.3-0.2,0.5-0.3,0.8
		c-0.4,0.9-0.7,1.9-0.9,2.9c0,0.1,0,0.3-0.1,0.4c-0.1,1-0.2,2-0.3,2.9v1.2c0.4,73.8,59.2,133.8,131.4,133.8
		c72.2,0,131-59.9,131.4-133.6c0-0.3,0.1-0.6,0.1-0.9c0-3.4-0.9-6.6-2.5-9.3l-106.7-224h72.8v-36.4H364.1V19.5h-36.4v145.6H36.4
		v36.4h72.8L1.9,426.8c-0.1,0.3-0.2,0.5-0.3,0.7l-0.3,0.8c-0.4,1-0.7,1.9-0.9,2.9c0,0.1,0,0.3-0.1,0.4c-0.2,1-0.3,2-0.3,2.9
		c0,0.1,0,0.3,0,0.4c0,0.2,0,0.4,0,0.6v0.1c0.4,73.8,59.2,133.8,131.4,133.8c72.2,0,130.9-59.9,131.4-133.6c0-0.3,0.1-0.6,0.1-1
		c0-3.4-0.9-6.6-2.5-9.3l-114.8-224h182.8l-0.7,436.9H218.5v36.4h254.9v-36.4H364.1V201.6H546.1z M131.4,533.5
		c-47.2,0-86.5-34.8-94.8-80.7h189.6C218,498.7,178.6,533.5,131.4,533.5 M46.1,417L133,241.8L217.2,417H46.1z M561.8,241.8L646,417
		H474.9L561.8,241.8z M560.2,533.5c-47.2,0-86.6-34.8-94.8-80.7H655C646.8,498.7,607.4,533.5,560.2,533.5"/>
</g>
<g>
	<defs>
		<rect id="SVGID_3_" width="692" height="675.8"/>
	</defs>
	<clipPath id="SVGID_4_">
		<use xlink:href="#SVGID_3_"  overflow="visible"/>
	</clipPath>
	<path clip-path="url(#SVGID_4_)" d="M327.7,19c0,6.5,3.5,12.5,9.1,15.7c5.6,3.2,12.5,3.2,18.2,0c5.6-3.2,9.1-9.2,9.1-15.7
		c0-10-8.1-18.2-18.2-18.2C335.9,0.8,327.7,9,327.7,19"/>
	<path clip-path="url(#SVGID_4_)" d="M19.3,183.3c0,6.5,3.5,12.5,9.1,15.7c5.6,3.2,12.5,3.2,18.2,0c5.6-3.2,9.1-9.2,9.1-15.7
		c0-6.5-3.5-12.5-9.1-15.7s-12.5-3.2-18.2,0S19.3,176.8,19.3,183.3"/>
	<path clip-path="url(#SVGID_4_)" d="M636.8,183.3c0,6.5,3.5,12.5,9.1,15.7c5.6,3.2,12.5,3.2,18.2,0c5.6-3.2,9.1-9.2,9.1-15.7
		c0-6.5-3.5-12.5-9.1-15.7c-5.6-3.2-12.5-3.2-18.2,0C640.2,170.8,636.8,176.8,636.8,183.3"/>
	<path clip-path="url(#SVGID_4_)" d="M200,656.7c0,10,8.1,18.2,18.2,18.2c10,0,18.2-8.1,18.2-18.2c0-10-8.1-18.2-18.2-18.2
		C208.1,638.6,200,646.7,200,656.7"/>
	<path clip-path="url(#SVGID_4_)" d="M456.1,656.7c0,6.5,3.5,12.5,9.1,15.7c5.6,3.2,12.5,3.2,18.2,0c5.6-3.2,9.1-9.2,9.1-15.7
		c0-6.5-3.5-12.5-9.1-15.7c-5.6-3.2-12.5-3.2-18.2,0C459.6,644.2,456.1,650.2,456.1,656.7"/>
</g>
</svg>
